<svg width="31" height="24" viewBox="0 0 31 24" fill="none" xmlns="http://www.w3.org/2000/svg">
<g clip-path="url(#clip0_1454_93)">
<path d="M20.0003 8.25C20.0003 12.8438 15.5941 16.5 10.2503 16.5C9.35967 16.5 8.51591 16.4062 7.67217 16.2188C6.26591 17.1094 4.20341 18 1.62529 18C1.15654 18 0.734667 17.7656 0.594042 17.2969C0.406542 16.875 0.453417 16.4062 0.781542 16.0312C0.828417 16.0312 1.85967 14.9062 2.60967 13.4062C1.29717 12 0.500292 10.2188 0.500292 8.25C0.500292 3.70312 4.85967 0 10.2503 0C15.5941 0 20.0003 3.70312 20.0003 8.25ZM10.2503 14.25C14.3753 14.25 17.7503 11.5781 17.7503 8.25C17.7503 4.96875 14.3753 2.25 10.2503 2.25C6.07841 2.25 2.75029 4.96875 2.75029 8.25C2.75029 9.9375 3.54717 11.1562 4.25029 11.8594L5.37529 13.0312L4.62529 14.4844C4.43779 14.7656 4.25029 15.0938 4.06279 15.4219C4.90654 15.1875 5.70341 14.8125 6.50029 14.2969L7.29717 13.8281L8.18779 14.0156C8.89091 14.2031 9.54717 14.25 10.2503 14.25ZM28.5784 20.8125C29.3284 22.3125 30.3597 23.3906 30.3597 23.4375C30.5003 23.5312 30.5003 23.6719 30.4534 23.8125C30.4065 23.9531 30.2659 24 30.1253 24C28.4378 24 26.9847 23.5781 25.8128 23.0156C24.5472 23.625 23.0472 24 21.5003 24C17.2347 24 13.7191 21.375 12.7347 17.7656C17.7503 16.7812 21.5003 12.8906 21.5003 8.25C21.5003 8.01562 21.4534 7.78125 21.4534 7.54688C21.4534 7.54688 21.4534 7.5 21.5003 7.5C26.4691 7.5 30.5003 11.2031 30.5003 15.75C30.5003 17.6719 29.7503 19.4062 28.5784 20.8125Z" fill="#808080"/>
</g>
<defs>
<clipPath id="clip0_1454_93">
<rect width="31" height="24" fill="white"/>
</clipPath>
</defs>
</svg>
