<svg width="18" height="18" viewBox="0 0 18 18" fill="none" xmlns="http://www.w3.org/2000/svg">
<path d="M9 0.398438C13.6406 0.398438 17.4375 4.19531 17.4375 8.83594C17.4375 13.5117 13.6406 17.2734 9 17.2734C4.32422 17.2734 0.5625 13.5117 0.5625 8.83594C0.5625 4.19531 4.32422 0.398438 9 0.398438ZM9 15.5859C12.6914 15.5859 15.75 12.5625 15.75 8.83594C15.75 5.14453 12.6914 2.08594 9 2.08594C5.27344 2.08594 2.25 5.14453 2.25 8.83594C2.25 12.5625 5.27344 15.5859 9 15.5859ZM12.375 7.99219C12.832 7.99219 13.2188 8.37891 13.2188 8.83594C13.2188 9.32812 12.832 9.67969 12.375 9.67969H5.625C5.13281 9.67969 4.78125 9.32812 4.78125 8.83594C4.78125 8.37891 5.13281 7.99219 5.625 7.99219H12.375Z" fill="#808080"/>
</svg>
