<svg width="13" height="12" viewBox="0 0 13 12" fill="none" xmlns="http://www.w3.org/2000/svg">
<path d="M7.21875 1.19141L12.0312 5.78516C12.168 5.92188 12.2227 6.08594 12.2227 6.27734C12.2227 6.44141 12.168 6.60547 12.0312 6.74219L7.21875 11.3359C6.94531 11.582 6.53516 11.582 6.28906 11.3086C6.04297 11.0625 6.04297 10.625 6.31641 10.3789L9.95312 6.93359H0.65625C0.273438 6.93359 0 6.63281 0 6.27734C0 5.89453 0.273438 5.62109 0.65625 5.62109H9.95312L6.31641 2.14844C6.04297 1.90234 6.04297 1.46484 6.28906 1.21875C6.53516 0.945312 6.94531 0.945312 7.21875 1.19141Z" fill="#2D3C68"/>
</svg>
