<svg width="32" height="32" viewBox="0 0 32 32" fill="none" xmlns="http://www.w3.org/2000/svg">
<rect x="0.5" y="0.5" width="31" height="31" rx="15.5" stroke="#2D3C68"/>
<path d="M7.372 21V11.2H13.546V12.656H8.884V19.544H13.546V21H7.372ZM8.058 16.702V15.246H12.776V16.702H8.058ZM15.9716 21V11.2H17.3296L23.3216 19.222L23.0976 19.348C23.0323 18.9653 22.9763 18.522 22.9296 18.018C22.8923 17.514 22.8643 16.9587 22.8456 16.352C22.8269 15.7453 22.8176 15.1013 22.8176 14.42V11.2H24.3296V21H22.9436L17.0496 13.272L17.2036 13.076C17.2689 13.7853 17.3203 14.3687 17.3576 14.826C17.3949 15.274 17.4229 15.6333 17.4416 15.904C17.4603 16.1747 17.4696 16.3893 17.4696 16.548C17.4789 16.6973 17.4836 16.8233 17.4836 16.926V21H15.9716Z" fill="#2D3C68"/>
</svg>
