<svg width="32" height="32" viewBox="0 0 32 32" fill="none" xmlns="http://www.w3.org/2000/svg">
<rect x="0.5" y="0.5" width="31" height="31" rx="15.5" stroke="#2D3C68"/>
<path d="M16.957 19.5508C17.2852 19.7422 17.3945 20.125 17.2305 20.4531C16.4648 21.875 14.9883 22.75 13.375 22.75C10.9414 22.75 9 20.8086 9 18.375C9 16.543 10.1484 14.9023 11.8711 14.2734C12.2266 14.1367 12.6094 14.3281 12.7188 14.6562C12.8555 15.0117 12.6641 15.3945 12.3359 15.5039C11.1055 15.9414 10.3125 17.0898 10.3125 18.375C10.3125 20.0703 11.6797 21.4375 13.375 21.4375C14.4961 21.4375 15.5352 20.8359 16.0547 19.8242C16.2461 19.4961 16.6289 19.3867 16.957 19.5508ZM14.25 11.375C13.5117 11.375 12.9375 10.8008 12.9375 10.0625C12.9375 9.35156 13.5117 8.75 14.25 8.75C14.9609 8.75 15.5625 9.35156 15.5625 10.0625C15.5625 10.8008 14.9609 11.375 14.25 11.375ZM22.9453 20.5898C23.0547 20.918 22.8906 21.3008 22.5352 21.4102L21.2227 21.8477C21.168 21.875 21.0859 21.875 21.0039 21.875C20.7578 21.875 20.5117 21.7383 20.4297 21.4922L19.0625 18.375H15.125C14.7969 18.375 14.5234 18.1562 14.4688 17.8555L13.5938 13.043C13.5391 12.6875 13.7578 12.332 14.1133 12.2773C14.4688 12.1953 14.8242 12.4414 14.8789 12.7969L15.0156 13.5625H18.3789C18.7617 13.5625 19.0352 13.8633 19.0352 14.2188C19.0352 14.6016 18.7617 14.875 18.3789 14.875H15.2617L15.6719 17.0625H19.4727C19.7461 17.0625 19.9922 17.2266 20.0742 17.4727L21.3867 20.4258L22.125 20.1797C22.4805 20.043 22.8359 20.2344 22.9453 20.5898Z" fill="#2D3C68"/>
</svg>
