<svg width="32" height="32" viewBox="0 0 32 32" fill="none" xmlns="http://www.w3.org/2000/svg">
<rect x="0.5" y="0.5" width="31" height="31" rx="15.5" stroke="#2D3C68"/>
<path d="M6.85 21L10.644 11.2H12.184L15.95 21H14.34L12.1 15.092C12.072 15.0267 12.016 14.868 11.932 14.616C11.8573 14.364 11.7687 14.084 11.666 13.776C11.5633 13.468 11.47 13.188 11.386 12.936C11.302 12.6747 11.246 12.5067 11.218 12.432L11.54 12.418C11.484 12.5767 11.414 12.7773 11.33 13.02C11.2553 13.2627 11.1713 13.5193 11.078 13.79C10.994 14.0607 10.91 14.3173 10.826 14.56C10.742 14.7933 10.672 14.9893 10.616 15.148L8.39 21H6.85ZM8.53 18.564L9.09 17.108H13.542L14.186 18.564H8.53ZM19.6907 20.412V13.65H21.1607V20.412H19.6907ZM16.9327 17.71V16.45H23.9467V17.71H16.9327Z" fill="#2D3C68"/>
</svg>
