<svg width="32" height="32" viewBox="0 0 32 32" fill="none" xmlns="http://www.w3.org/2000/svg">
<rect x="0.5" y="0.5" width="31" height="31" rx="15.5" stroke="#2D3C68"/>
<path d="M22.7812 21.6562C23.0547 21.9023 23.0547 22.3125 22.7812 22.5586C22.6719 22.6953 22.5078 22.75 22.3438 22.75C22.1523 22.75 21.9883 22.6953 21.8789 22.5586L18.2148 18.8945C17.2305 19.6875 16 20.125 14.6875 20.125C11.543 20.125 9 17.582 9 14.4375C9 11.3203 11.543 8.75 14.6875 8.75C17.8047 8.75 20.375 11.3203 20.375 14.4375C20.375 15.7773 19.9102 17.0078 19.1172 17.9922L22.7812 21.6562ZM10.3125 14.4375C10.3125 16.8711 12.2539 18.8125 14.6875 18.8125C17.0938 18.8125 19.0625 16.8711 19.0625 14.4375C19.0625 12.0312 17.0938 10.0625 14.6875 10.0625C12.2539 10.0625 10.3125 12.0312 10.3125 14.4375Z" fill="#2D3C68"/>
</svg>
