<svg width="18" height="15" viewBox="0 0 18 15" fill="none" xmlns="http://www.w3.org/2000/svg">
<path d="M17.875 6.96875C17.9375 7.125 18 7.375 18 7.5C18 7.65625 17.9375 7.90625 17.875 8.0625C16.1875 11.9062 12.8125 14.5 9 14.5C5.15625 14.5 1.78125 11.9062 0.09375 8.0625C0.03125 7.90625 0 7.65625 0 7.5C0 7.375 0.03125 7.125 0.09375 6.96875C1.78125 3.125 5.15625 0.5 9 0.5C12.8125 0.5 16.1875 3.125 17.875 6.96875ZM9 13C12.0938 13 14.9375 10.9062 16.4688 7.5C14.9688 4.125 12.0938 2 9 2C5.875 2 3.03125 4.125 1.5 7.53125C3 10.9062 5.875 13 9 13ZM9 3.5C11.1875 3.5 13 5.3125 13 7.5V7.53125C13 9.71875 11.1875 11.5 9 11.5C6.78125 11.5 5 9.71875 5 7.5C5 5.3125 6.78125 3.5 9 3.5ZM9 10C10.375 10 11.5 8.90625 11.5 7.53125C11.5 6.125 10.375 5 9 5C8.96875 5 8.9375 5.03125 8.90625 5.03125C8.96875 5.1875 9 5.34375 9 5.5C9 6.625 8.09375 7.5 7 7.5C6.8125 7.5 6.65625 7.5 6.5 7.4375C6.5 7.46875 6.5 7.5 6.5 7.5C6.5 8.90625 7.59375 10 9 10Z" fill="#808080"/>
</svg>
