<svg width="21" height="24" viewBox="0 0 21 24" fill="none" xmlns="http://www.w3.org/2000/svg">
<g clip-path="url(#clip0_1454_91)">
<path d="M21 17.25C21 18.2344 20.3438 19.0781 19.5 19.4062V22.5H20.25C20.625 22.5 21 22.875 21 23.25C21 23.6719 20.625 24 20.25 24H3C1.3125 24 0 22.6875 0 21V3.75C0 1.6875 1.64062 0 3.75 0H18.75C19.9688 0 21 1.03125 21 2.25V17.25ZM1.5 3.75V18.4219C1.92188 18.1875 2.4375 18 3 18H4.5V1.5H3.75C2.48438 1.5 1.5 2.53125 1.5 3.75ZM18 22.5V19.5H3C2.15625 19.5 1.5 20.2031 1.5 21C1.5 21.8438 2.15625 22.5 3 22.5H18ZM18.75 18C19.125 18 19.5 17.6719 19.5 17.25V2.25C19.5 1.875 19.125 1.5 18.75 1.5H6V18H18.75ZM16.5 6C16.875 6 17.25 6.375 17.25 6.75C17.25 7.17188 16.875 7.5 16.5 7.5H9C8.57812 7.5 8.25 7.17188 8.25 6.75C8.25 6.375 8.57812 6 9 6H16.5ZM16.5 10.5C16.875 10.5 17.25 10.875 17.25 11.25C17.25 11.6719 16.875 12 16.5 12H9C8.57812 12 8.25 11.6719 8.25 11.25C8.25 10.875 8.57812 10.5 9 10.5H16.5Z" fill="#2D3C68"/>
</g>
<defs>
<clipPath id="clip0_1454_91">
<rect width="21" height="24" fill="white"/>
</clipPath>
</defs>
</svg>
