<svg width="31" height="24" viewBox="0 0 31 24" fill="none" xmlns="http://www.w3.org/2000/svg">
<path d="M25.25 22.5C25.625 22.5 26 22.875 26 23.25C26 23.6719 25.625 24 25.25 24H5.70312C5.32812 24 4.95312 23.6719 4.95312 23.25C4.95312 22.875 5.32812 22.5 5.70312 22.5H14.7031V5.90625C13.4375 5.57812 12.4531 4.40625 12.4531 3H5.70312C5.32812 3 4.95312 2.67188 4.95312 2.25C4.95312 1.875 5.32812 1.5 5.70312 1.5H12.9219C12.9219 1.5 13.1094 0.984375 13.8125 0.515625C14.2812 0.1875 14.8438 0 15.5 0C16.1094 0 16.6719 0.1875 17.1406 0.515625C17.8438 0.984375 18.0312 1.5 18.0312 1.5H25.25C25.625 1.5 26 1.875 26 2.25C26 2.67188 25.625 3 25.25 3H18.5C18.5 4.40625 17.5156 5.57812 16.25 5.90625V22.5H25.25ZM13.9531 3C13.9531 3.84375 14.6562 4.5 15.5 4.5C16.2969 4.5 17 3.84375 17 3C17 2.20312 16.2969 1.5 15.5 1.5C14.6562 1.5 13.9531 2.20312 13.9531 3ZM30.2188 13.125C30.4062 13.3594 30.5 13.6875 30.4531 14.0156C30.2188 17.1094 27.6406 19.5 24.5 19.5C21.3125 19.5 18.7344 17.1094 18.5 14.0156C18.4531 13.6875 18.5469 13.3594 18.7344 13.125L23.8438 4.875C23.9844 4.64062 24.2188 4.5 24.5 4.5C24.7344 4.5 24.9688 4.64062 25.1094 4.875L30.2188 13.125ZM24.5 18C26.4219 18 28.1094 16.7812 28.7188 15H20.2344C20.8438 16.7344 22.5312 18 24.5 18ZM20.2344 13.5H28.7656L24.5 6.70312L20.2344 13.5ZM12.4531 14.0156C12.2188 17.1094 9.64062 19.5 6.45312 19.5C3.3125 19.5 0.734375 17.1094 0.5 14.0156C0.453125 13.6875 0.546875 13.3594 0.734375 13.125L5.84375 4.875C5.98438 4.64062 6.21875 4.5 6.45312 4.5C6.73438 4.5 6.96875 4.64062 7.10938 4.875L12.2188 13.125C12.4062 13.3594 12.5 13.6875 12.4531 14.0156ZM6.45312 6.70312L2.23438 13.5H10.7188L6.45312 6.70312ZM2.23438 15C2.84375 16.7344 4.53125 18 6.45312 18C8.42188 18 10.0625 16.7812 10.7188 15H2.23438Z" fill="#808080"/>
</svg>
