<svg width="31" height="24" viewBox="0 0 31 24" fill="none" xmlns="http://www.w3.org/2000/svg">
<g clip-path="url(#clip0_1454_89)">
<path d="M25.2502 22.5C25.6252 22.5 26.0002 22.875 26.0002 23.25C26.0002 23.6719 25.6252 24 25.2502 24H5.70335C5.32835 24 4.95335 23.6719 4.95335 23.25C4.95335 22.875 5.32835 22.5 5.70335 22.5H14.7033V5.90625C13.4377 5.57812 12.4533 4.40625 12.4533 3H5.70335C5.32835 3 4.95335 2.67188 4.95335 2.25C4.95335 1.875 5.32835 1.5 5.70335 1.5H12.9221C12.9221 1.5 13.1096 0.984375 13.8127 0.515625C14.2814 0.1875 14.844 0 15.5002 0C16.1096 0 16.6721 0.1875 17.1408 0.515625C17.844 0.984375 18.0314 1.5 18.0314 1.5H25.2502C25.6252 1.5 26.0002 1.875 26.0002 2.25C26.0002 2.67188 25.6252 3 25.2502 3H18.5002C18.5002 4.40625 17.5158 5.57812 16.2502 5.90625V22.5H25.2502ZM13.9533 3C13.9533 3.84375 14.6564 4.5 15.5002 4.5C16.2971 4.5 17.0002 3.84375 17.0002 3C17.0002 2.20312 16.2971 1.5 15.5002 1.5C14.6564 1.5 13.9533 2.20312 13.9533 3ZM30.219 13.125C30.4064 13.3594 30.5002 13.6875 30.4533 14.0156C30.219 17.1094 27.6408 19.5 24.5002 19.5C21.3127 19.5 18.7346 17.1094 18.5002 14.0156C18.4533 13.6875 18.5471 13.3594 18.7346 13.125L23.844 4.875C23.9846 4.64062 24.219 4.5 24.5002 4.5C24.7346 4.5 24.969 4.64062 25.1096 4.875L30.219 13.125ZM24.5002 18C26.4221 18 28.1096 16.7812 28.719 15H20.2346C20.844 16.7344 22.5314 18 24.5002 18ZM20.2346 13.5H28.7658L24.5002 6.70312L20.2346 13.5ZM12.4533 14.0156C12.219 17.1094 9.64085 19.5 6.45335 19.5C3.31273 19.5 0.734602 17.1094 0.500227 14.0156C0.453352 13.6875 0.547102 13.3594 0.734602 13.125L5.84398 4.875C5.98461 4.64062 6.21898 4.5 6.45335 4.5C6.73461 4.5 6.96898 4.64062 7.10961 4.875L12.219 13.125C12.4064 13.3594 12.5002 13.6875 12.4533 14.0156ZM6.45335 6.70312L2.23461 13.5H10.719L6.45335 6.70312ZM2.23461 15C2.84398 16.7344 4.53148 18 6.45335 18C8.42211 18 10.0627 16.7812 10.719 15H2.23461Z" fill="#2D3C68"/>
</g>
<defs>
<clipPath id="clip0_1454_89">
<rect width="31" height="24" fill="white"/>
</clipPath>
</defs>
</svg>
