<svg width="15" height="15" viewBox="0 0 15 15" fill="none" xmlns="http://www.w3.org/2000/svg">
<path d="M0.9375 1.0625C1.21875 0.96875 1.5625 1.03125 1.75 1.25L3.0625 2.5625C4.375 1.28125 6.09375 0.5 8 0.5C11.8438 0.5 15 3.65625 15 7.5C15 11.375 11.8438 14.5 8 14.5C6.34375 14.5 4.75 13.9375 3.5 12.9062C3.1875 12.625 3.15625 12.1562 3.40625 11.8438C3.6875 11.5312 4.15625 11.4688 4.46875 11.75C5.4375 12.5625 6.6875 13 8 13C11.0312 13 13.5 10.5625 13.5 7.5C13.5 4.46875 11.0312 2 8 2C6.5 2 5.15625 2.625 4.125 3.59375L5.75 5.25C5.96875 5.4375 6.03125 5.78125 5.9375 6.0625C5.8125 6.34375 5.53125 6.5 5.25 6.5H1.25C0.8125 6.5 0.5 6.1875 0.5 5.75V1.75C0.5 1.46875 0.65625 1.1875 0.9375 1.0625Z" fill="#2D3C68"/>
</svg>
