<svg width="17" height="16" viewBox="0 0 17 16" fill="none" xmlns="http://www.w3.org/2000/svg">
<path d="M15.75 14.75C16.0625 15.0312 16.0625 15.5 15.75 15.7812C15.625 15.9375 15.4375 16 15.25 16C15.0312 16 14.8438 15.9375 14.7188 15.7812L10.5312 11.5938C9.40625 12.5 8 13 6.5 13C2.90625 13 0 10.0938 0 6.5C0 2.9375 2.90625 0 6.5 0C10.0625 0 13 2.9375 13 6.5C13 8.03125 12.4688 9.4375 11.5625 10.5625L15.75 14.75ZM1.5 6.5C1.5 9.28125 3.71875 11.5 6.5 11.5C9.25 11.5 11.5 9.28125 11.5 6.5C11.5 3.75 9.25 1.5 6.5 1.5C3.71875 1.5 1.5 3.75 1.5 6.5Z" fill="#E8E8E8"/>
</svg>
